<mxfile host="app.diagrams.net" agent="Mozilla/5.0 (Windows NT 10.0; Win64; x64) AppleWebKit/537.36 (KHTML, like Gecko) Chrome/141.0.0.0 Safari/537.36" version="28.2.5">
  <diagram name="Page-1" id="PimbAe00bwnnPsknt1ur">
    <mxGraphModel dx="706" dy="746" grid="1" gridSize="10" guides="1" tooltips="1" connect="1" arrows="1" fold="1" page="1" pageScale="1" pageWidth="850" pageHeight="1100" math="0" shadow="0">
      <root>
        <mxCell id="0" />
        <mxCell id="1" parent="0" />
        <mxCell id="Q-m_CK_AbIpqtnuIQysX-2" value="" style="edgeStyle=orthogonalEdgeStyle;rounded=0;orthogonalLoop=1;jettySize=auto;html=1;" edge="1" parent="1" source="5lVzqHItozLWqn3NfXpI-1" target="Q-m_CK_AbIpqtnuIQysX-1">
          <mxGeometry relative="1" as="geometry" />
        </mxCell>
        <mxCell id="5lVzqHItozLWqn3NfXpI-1" value="start" style="html=1;dashed=0;whiteSpace=wrap;shape=mxgraph.dfd.start" parent="1" vertex="1">
          <mxGeometry x="385" y="10" width="80" height="30" as="geometry" />
        </mxCell>
        <mxCell id="5lVzqHItozLWqn3NfXpI-2" value="end" style="html=1;dashed=0;whiteSpace=wrap;shape=mxgraph.dfd.start" parent="1" vertex="1">
          <mxGeometry x="385" y="490" width="80" height="30" as="geometry" />
        </mxCell>
        <mxCell id="Q-m_CK_AbIpqtnuIQysX-4" value="" style="edgeStyle=orthogonalEdgeStyle;rounded=0;orthogonalLoop=1;jettySize=auto;html=1;" edge="1" parent="1" source="Q-m_CK_AbIpqtnuIQysX-1" target="Q-m_CK_AbIpqtnuIQysX-3">
          <mxGeometry relative="1" as="geometry" />
        </mxCell>
        <mxCell id="Q-m_CK_AbIpqtnuIQysX-1" value="declare int ans" style="rounded=0;whiteSpace=wrap;html=1;" vertex="1" parent="1">
          <mxGeometry x="380" y="70" width="90" height="30" as="geometry" />
        </mxCell>
        <mxCell id="Q-m_CK_AbIpqtnuIQysX-6" value="" style="edgeStyle=orthogonalEdgeStyle;rounded=0;orthogonalLoop=1;jettySize=auto;html=1;" edge="1" parent="1" source="Q-m_CK_AbIpqtnuIQysX-3" target="Q-m_CK_AbIpqtnuIQysX-5">
          <mxGeometry relative="1" as="geometry" />
        </mxCell>
        <mxCell id="Q-m_CK_AbIpqtnuIQysX-3" value="Output(&quot;Enter an integer: &quot;)" style="shape=parallelogram;perimeter=parallelogramPerimeter;whiteSpace=wrap;html=1;fixedSize=1;" vertex="1" parent="1">
          <mxGeometry x="365" y="130" width="120" height="50" as="geometry" />
        </mxCell>
        <mxCell id="Q-m_CK_AbIpqtnuIQysX-8" value="" style="edgeStyle=orthogonalEdgeStyle;rounded=0;orthogonalLoop=1;jettySize=auto;html=1;" edge="1" parent="1" source="Q-m_CK_AbIpqtnuIQysX-5" target="Q-m_CK_AbIpqtnuIQysX-7">
          <mxGeometry relative="1" as="geometry" />
        </mxCell>
        <mxCell id="Q-m_CK_AbIpqtnuIQysX-5" value="Input ans" style="shape=parallelogram;perimeter=parallelogramPerimeter;whiteSpace=wrap;html=1;fixedSize=1;" vertex="1" parent="1">
          <mxGeometry x="380" y="220" width="90" height="40" as="geometry" />
        </mxCell>
        <mxCell id="Q-m_CK_AbIpqtnuIQysX-10" value="" style="edgeStyle=orthogonalEdgeStyle;rounded=0;orthogonalLoop=1;jettySize=auto;html=1;" edge="1" parent="1" source="Q-m_CK_AbIpqtnuIQysX-7" target="Q-m_CK_AbIpqtnuIQysX-9">
          <mxGeometry relative="1" as="geometry" />
        </mxCell>
        <mxCell id="Q-m_CK_AbIpqtnuIQysX-7" value="while ans != 0" style="rhombus;whiteSpace=wrap;html=1;" vertex="1" parent="1">
          <mxGeometry x="378" y="350" width="95" height="90" as="geometry" />
        </mxCell>
        <mxCell id="Q-m_CK_AbIpqtnuIQysX-14" value="" style="edgeStyle=orthogonalEdgeStyle;rounded=0;orthogonalLoop=1;jettySize=auto;html=1;" edge="1" parent="1" source="Q-m_CK_AbIpqtnuIQysX-9" target="Q-m_CK_AbIpqtnuIQysX-12">
          <mxGeometry relative="1" as="geometry" />
        </mxCell>
        <mxCell id="Q-m_CK_AbIpqtnuIQysX-18" value="" style="edgeStyle=orthogonalEdgeStyle;rounded=0;orthogonalLoop=1;jettySize=auto;html=1;" edge="1" parent="1" source="Q-m_CK_AbIpqtnuIQysX-9" target="Q-m_CK_AbIpqtnuIQysX-17">
          <mxGeometry relative="1" as="geometry" />
        </mxCell>
        <mxCell id="Q-m_CK_AbIpqtnuIQysX-9" value="if ans &amp;gt; 0" style="rhombus;whiteSpace=wrap;html=1;" vertex="1" parent="1">
          <mxGeometry x="250" y="362.5" width="70" height="65" as="geometry" />
        </mxCell>
        <mxCell id="Q-m_CK_AbIpqtnuIQysX-11" style="edgeStyle=orthogonalEdgeStyle;rounded=0;orthogonalLoop=1;jettySize=auto;html=1;entryX=0.5;entryY=0.5;entryDx=0;entryDy=-15;entryPerimeter=0;" edge="1" parent="1" source="Q-m_CK_AbIpqtnuIQysX-7" target="5lVzqHItozLWqn3NfXpI-2">
          <mxGeometry relative="1" as="geometry" />
        </mxCell>
        <mxCell id="Q-m_CK_AbIpqtnuIQysX-22" value="" style="edgeStyle=orthogonalEdgeStyle;rounded=0;orthogonalLoop=1;jettySize=auto;html=1;" edge="1" parent="1" source="Q-m_CK_AbIpqtnuIQysX-12" target="Q-m_CK_AbIpqtnuIQysX-21">
          <mxGeometry relative="1" as="geometry" />
        </mxCell>
        <mxCell id="Q-m_CK_AbIpqtnuIQysX-12" value="Output(&quot;That&#39;s a positive number.&quot;)" style="shape=parallelogram;perimeter=parallelogramPerimeter;whiteSpace=wrap;html=1;fixedSize=1;" vertex="1" parent="1">
          <mxGeometry x="90" y="371.25" width="130" height="47.5" as="geometry" />
        </mxCell>
        <mxCell id="Q-m_CK_AbIpqtnuIQysX-16" value="true" style="text;html=1;align=center;verticalAlign=middle;whiteSpace=wrap;rounded=0;" vertex="1" parent="1">
          <mxGeometry x="215" y="374" width="43" height="22" as="geometry" />
        </mxCell>
        <mxCell id="Q-m_CK_AbIpqtnuIQysX-23" value="" style="edgeStyle=orthogonalEdgeStyle;rounded=0;orthogonalLoop=1;jettySize=auto;html=1;" edge="1" parent="1" source="Q-m_CK_AbIpqtnuIQysX-17" target="Q-m_CK_AbIpqtnuIQysX-21">
          <mxGeometry relative="1" as="geometry" />
        </mxCell>
        <mxCell id="Q-m_CK_AbIpqtnuIQysX-17" value="Output(&quot;That&#39;s a negative number.&quot;)" style="shape=parallelogram;perimeter=parallelogramPerimeter;whiteSpace=wrap;html=1;fixedSize=1;" vertex="1" parent="1">
          <mxGeometry x="218.5" y="300" width="133" height="40" as="geometry" />
        </mxCell>
        <mxCell id="Q-m_CK_AbIpqtnuIQysX-19" value="false" style="text;html=1;align=center;verticalAlign=middle;whiteSpace=wrap;rounded=0;" vertex="1" parent="1">
          <mxGeometry x="290" y="345.5" width="50" height="17" as="geometry" />
        </mxCell>
        <mxCell id="Q-m_CK_AbIpqtnuIQysX-26" value="" style="edgeStyle=orthogonalEdgeStyle;rounded=0;orthogonalLoop=1;jettySize=auto;html=1;" edge="1" parent="1" source="Q-m_CK_AbIpqtnuIQysX-21" target="Q-m_CK_AbIpqtnuIQysX-25">
          <mxGeometry relative="1" as="geometry" />
        </mxCell>
        <mxCell id="Q-m_CK_AbIpqtnuIQysX-21" value="Output(&quot;Enter another integer: &quot;)" style="shape=parallelogram;perimeter=parallelogramPerimeter;whiteSpace=wrap;html=1;fixedSize=1;" vertex="1" parent="1">
          <mxGeometry x="80" y="220" width="150" height="40" as="geometry" />
        </mxCell>
        <mxCell id="Q-m_CK_AbIpqtnuIQysX-27" style="edgeStyle=orthogonalEdgeStyle;rounded=0;orthogonalLoop=1;jettySize=auto;html=1;" edge="1" parent="1" source="Q-m_CK_AbIpqtnuIQysX-25">
          <mxGeometry relative="1" as="geometry">
            <mxPoint x="420" y="330" as="targetPoint" />
            <Array as="points">
              <mxPoint x="360" y="160" />
              <mxPoint x="360" y="330" />
            </Array>
          </mxGeometry>
        </mxCell>
        <mxCell id="Q-m_CK_AbIpqtnuIQysX-25" value="Input ans" style="shape=parallelogram;perimeter=parallelogramPerimeter;whiteSpace=wrap;html=1;fixedSize=1;" vertex="1" parent="1">
          <mxGeometry x="168" y="140" width="90" height="40" as="geometry" />
        </mxCell>
      </root>
    </mxGraphModel>
  </diagram>
</mxfile>
